<?xml version="1.0" encoding="UTF-8"?>
<svg id="Layer_2" xmlns="http://www.w3.org/2000/svg" version="1.1" viewBox="0 0 1250 398">
  <!-- Generator: Adobe Illustrator 30.0.0, SVG Export Plug-In . SVG Version: 2.1.1 Build 123)  -->
  <defs>
    <style>
      .st0 {
        isolation: isolate;
      }

      .st1 {
        fill: #fff;
      }
    </style>
  </defs>
  <g id="Layer_1-2">
    <g class="st0">
      <g class="st0">
        <path class="st1" d="M382.4,194.4h-85.1l-15.7,43.4h-26.9l70.6-194.1h29.4l70.3,194.1h-26.9l-15.7-43.4ZM375.1,173.6l-35.3-98.6-35.3,98.6h70.6Z"/>
        <path class="st1" d="M591.9,84.3v153.5h-25.5v-22.7c-4.9,7.8-11.6,14-20.3,18.3-8.7,4.4-18.3,6.6-28.7,6.6s-22.7-2.5-32.2-7.4c-9.5-4.9-17-12.4-22.5-22.3-5.5-9.9-8.3-21.9-8.3-36.1v-89.9h25.2v86.5c0,15.1,3.8,26.7,11.5,34.9,7.7,8.1,18.1,12.2,31.4,12.2s24.4-4.2,32.2-12.6c7.8-8.4,11.8-20.6,11.8-36.7v-84.3h25.5Z"/>
        <path class="st1" d="M679.7,88.8c8.3-4.9,18.4-7.3,30.4-7.3v26.3h-6.7c-28.6,0-42.8,15.5-42.8,46.5v83.5h-25.5V84.3h25.5v24.9c4.5-8.8,10.9-15.6,19.2-20.4Z"/>
        <path class="st1" d="M878.6,170.6h-122.7c.9,15.1,6.1,26.9,15.5,35.4,9.4,8.5,20.9,12.7,34.3,12.7s20.2-2.6,27.6-7.7c7.4-5.1,12.6-12,15.5-20.6h27.4c-4.1,14.8-12.3,26.7-24.6,36-12.3,9.2-27.6,13.9-45.9,13.9s-27.6-3.3-39.1-9.8c-11.5-6.5-20.5-15.8-27-27.9-6.5-12-9.8-26-9.8-41.9s3.2-29.8,9.5-41.7c6.3-11.9,15.3-21.1,26.7-27.6s24.7-9.7,39.6-9.7,27.4,3.2,38.6,9.5c11.2,6.3,19.8,15.1,25.9,26.2,6.1,11.1,9.1,23.7,9.1,37.7s-.3,10-.8,15.4ZM846.7,124.8c-4.3-7-10.1-12.3-17.5-16-7.4-3.6-15.5-5.5-24.5-5.5-12.9,0-23.9,4.1-32.9,12.3-9.1,8.2-14.2,19.6-15.5,34.2h96.9c0-9.7-2.1-18.1-6.4-25.1Z"/>
        <path class="st1" d="M940.9,230.5c-11.7-6.5-20.8-15.8-27.4-27.9-6.6-12-9.9-26-9.9-41.9s3.4-29.5,10.2-41.6c6.8-12,16.1-21.3,27.9-27.7s24.9-9.7,39.5-9.7,27.7,3.2,39.5,9.7,21,15.6,27.9,27.6c6.8,12,10.2,25.9,10.2,41.7s-3.5,29.8-10.5,41.9c-7,12-16.5,21.3-28.4,27.9-12,6.5-25.2,9.8-39.8,9.8s-27.4-3.3-39.1-9.8ZM1005.8,211.4c8-4.3,14.5-10.7,19.5-19.3,4.9-8.6,7.4-19,7.4-31.4s-2.4-22.8-7.3-31.4c-4.9-8.6-11.2-15-19-19.2-7.8-4.2-16.3-6.3-25.5-6.3s-17.9,2.1-25.6,6.3c-7.8,4.2-14,10.6-18.6,19.2-4.7,8.6-7,19-7,31.4s2.3,23.1,6.9,31.6c4.6,8.6,10.7,15,18.3,19.2,7.7,4.2,16.1,6.3,25.2,6.3s17.7-2.1,25.8-6.4Z"/>
        <path class="st1" d="M1212.5,98.4c11.6,11.3,17.4,27.6,17.4,48.9v90.5h-25.2v-86.8c0-15.3-3.8-27-11.5-35.1-7.7-8.1-18.1-12.2-31.4-12.2s-24.1,4.2-32.1,12.6c-7.9,8.4-11.9,20.6-11.9,36.7v84.9h-25.5V84.3h25.5v21.8c5-7.8,11.9-13.9,20.6-18.2,8.7-4.3,18.2-6.4,28.7-6.4,18.7,0,33.8,5.6,45.4,16.9Z"/>
      </g>
    </g>
    <path class="st1" d="M165.8,76.2l18.3,33.1-70.7,29.5,71.2,29-19.3,34.1-61.5-44.8,8.1,76.8h-38.1l7.6-76.8-61.5,45.3L0,167.8l70.7-29.5L0,109.8l18.8-34.1,63.1,45.3-8.1-77.3h38.7l-8.7,77.3,62.1-44.8h0Z"/>
  </g>
</svg>